<?xml version="1.0" encoding="utf-8"?>
<!-- Generator: Adobe Illustrator 25.1.0, SVG Export Plug-In . SVG Version: 6.00 Build 0)  -->
<svg version="1.1" id="Layer_1" xmlns="http://www.w3.org/2000/svg" xmlns:xlink="http://www.w3.org/1999/xlink" x="0px" y="0px"
	 width="664.998px" height="90.872px" viewBox="0 0 664.998 90.872" style="enable-background:new 0 0 664.998 90.872;"
	 xml:space="preserve">
<style type="text/css">
	.st0{fill:#FFFFFF;}
	.st1{fill:#FF511E;}
</style>
<g>
	<path class="st0" d="M539.364,0.019h-33.211v89.072h17.56V59.824h15.651c8.526,0,15.779-2.927,21.632-8.653
		c5.853-5.726,8.78-12.852,8.78-21.25c0-8.398-2.927-15.524-8.78-21.25C555.143,2.945,547.89,0.019,539.364,0.019z M539.364,43.41
		h-15.651V16.434h15.651c7.508,0,12.979,5.726,12.979,13.488C552.344,37.556,546.872,43.41,539.364,43.41z"/>
	<path class="st0" d="M621.439,32.975c-4.962-6.235-11.834-9.289-20.741-9.289c-8.526,0-15.778,3.309-21.886,9.798
		c-5.98,6.489-9.034,14.379-9.034,23.795s3.054,17.433,9.034,23.922c6.108,6.489,13.361,9.671,21.886,9.671
		c8.907,0,15.779-3.054,20.741-9.289v7.507h16.415V25.468h-16.415V32.975z M616.35,70.258c-3.309,3.308-7.508,4.962-12.597,4.962
		c-5.09,0-9.289-1.654-12.597-4.962c-3.308-3.436-4.962-7.762-4.962-12.979c0-5.217,1.654-9.543,4.962-12.852
		c3.309-3.436,7.508-5.09,12.597-5.09c5.09,0,9.289,1.654,12.597,5.09c3.435,3.308,5.09,7.635,5.09,12.852
		C621.439,62.496,619.785,66.822,616.35,70.258z"/>
	<rect x="648.584" y="0.019" class="st0" width="16.415" height="89.072"/>
	<polygon class="st0" points="320.523,0.019 296.003,73.312 274.371,0.019 262.41,0.019 240.778,73.312 216.259,0.019 
		203.789,0.019 233.526,89.09 247.268,89.09 268.391,17.96 289.514,89.09 303.256,89.09 332.993,0.019 	"/>
	<path class="st0" d="M359.5,23.813c-9.289,0-17.305,3.182-23.795,9.671c-6.489,6.489-9.671,14.379-9.671,23.794
		c0,9.417,3.181,17.306,9.671,23.795c6.49,6.489,14.506,9.671,23.795,9.671c9.289,0,17.305-3.182,23.795-9.671
		c6.489-6.489,9.798-14.379,9.798-23.795c0-9.416-3.309-17.305-9.798-23.794C376.805,26.995,368.789,23.813,359.5,23.813z
		 M375.533,73.439c-4.326,4.326-9.671,6.489-16.033,6.489c-6.235,0-11.58-2.163-15.906-6.489c-4.326-4.326-6.49-9.67-6.49-16.161
		c0-6.489,2.163-11.834,6.49-16.16c4.326-4.326,9.67-6.489,15.906-6.489c6.362,0,11.706,2.163,16.033,6.489
		c4.326,4.326,6.489,9.67,6.489,16.16C382.022,63.769,379.859,69.113,375.533,73.439z"/>
	<path class="st0" d="M415.064,36.156V25.467h-11.07V89.09h11.07V55.37c0-6.999,1.908-11.961,5.853-15.142
		c3.945-3.182,8.526-4.581,13.997-4.327V24.322C425.37,24.322,418.754,28.267,415.064,36.156z"/>
	<polygon class="st0" points="495.667,25.444 482.738,25.444 454.44,68.42 454.44,0.019 443.524,0.019 443.524,89.09 452.394,89.09 
		469.422,63.429 486.534,89.036 486.57,89.09 499.478,89.09 476.123,54.184 	"/>
</g>
<g>
	<polygon class="st1" points="18.584,0.001 0,0.001 26.993,80.321 36.286,52.673 	"/>
	<polygon class="st1" points="79.08,0.001 61.223,0.001 31.279,89.07 49.077,89.07 49.776,89.035 70.097,28.569 87.429,80.14 
		96.721,52.492 	"/>
	<polygon class="st1" points="121.624,0.001 92.113,87.809 91.699,89.07 110.25,89.07 140.194,0.001 	"/>
	<path class="st1" d="M176.881,21.205l-0.368-1.001l-0.018,0.007c-2.957-8.355-9.289-15.101-17.683-18.19
		c-2.005-0.774-4.126-1.347-6.354-1.673c-1.81-0.264-3.059-0.331-4.909-0.347l-5.632,16.753c0.179-0.001,0.348-0.002,0.518-0.002
		l-0.045,0.135c2.097-0.009,3.648-0.025,3.689-0.025c1.776,0,3.552,0.245,5.236,0.728c5.297,1.676,9.541,5.86,9.541,12.972
		c0,7.148-6.152,13.197-14.005,13.773l-0.417,0.04c0,0.019-11.684,0.003-13.803,0l-5.731,17.048c0.083,0,0.266,0,0.517,0
		l-0.009,0.026h18.719c17.751,0,32.192-13.809,32.192-30.785C178.317,27.404,177.834,24.223,176.881,21.205z"/>
</g>
</svg>
