<svg id="Layer_1" data-name="Layer 1" xmlns="http://www.w3.org/2000/svg" viewBox="0 0 178.317 89.07"><defs><style>.cls-1{fill:#fff;}</style></defs><polygon class="cls-1" points="18.584 0.001 0 0.001 26.993 80.321 36.286 52.673 18.584 0.001"/><polygon class="cls-1" points="79.08 0.001 61.223 0.001 31.279 89.07 49.077 89.07 49.776 89.035 70.097 28.569 87.429 80.14 96.721 52.492 79.08 0.001"/><polygon class="cls-1" points="121.624 0.001 92.113 87.809 91.699 89.07 110.25 89.07 140.194 0.001 121.624 0.001"/><path class="cls-1" d="M176.881,21.205l-.368-1-.018.007A29.763,29.763,0,0,0,158.812,2.02,29.456,29.456,0,0,0,152.458.347,32.325,32.325,0,0,0,147.548,0l-5.632,16.753.518,0-.045.135c2.1-.009,3.648-.025,3.689-.025a19.061,19.061,0,0,1,5.236.728c5.3,1.676,9.54,5.859,9.54,12.972,0,7.147-6.151,13.2-14.005,13.773l-.416.04c0,.019-11.684,0-13.8,0L126.9,61.422h.517l-.009.026h18.719c17.751,0,32.191-13.809,32.191-30.785A31.361,31.361,0,0,0,176.881,21.205Z"/></svg>